# xmcd
#
# Track frame offsets:
#	150
#	14247
#	32060
#	43375
#	61272
#	75192
#	100512
#	117495
#	134342
#	152885
#	167270
#	182137
#
# Disc length: 2620 seconds
#
# Revision: 2
# Processed by: cddbd v1.5.1PL0 Copyright (c) Steve Scherf et al.
# Submitted via: MusicWizard 7.0.2
#
DISCID=970a3a0c
DTITLE=Emmylou Harris - Elite Hotel
DYEAR=1975
DGENRE=country
TTITLE0=Amarillo
TTITLE1=Together Again
TTITLE2=Feelin' Single -- Seein' Double
TTITLE3=Sin City
TTITLE4=One Of These Days
TTITLE5=Till I Gain Control Again
TTITLE6=Here, There And Everywhere
TTITLE7=Ooh! Las Vegas
TTITLE8=Sweet Dreams
TTITLE9=Jambalaya
TTITLE10=Satan's Jewel Crown
TTITLE11=Wheels
EXTD=(c)1975 Reprise/Warner Bros\nProduced by Brian Ahern for Happy Sack Productions\nupc 07599272
EXTD=462\nReprise 254060 Europe\nReprise 2286-2
EXTT0=
EXTT1=
EXTT2=
EXTT3=
EXTT4=
EXTT5=
EXTT6=
EXTT7=
EXTT8=
EXTT9=
EXTT10=
EXTT11=
PLAYORDER=
